PathFileType	4	(X/Y/Z)	C:/Users/opensim2020/Desktop/walking_exp_matlab/subject01_walking04_straight_03.trc	
DataRate	CameraRate	NumFrames	NumMarkers	Units	OrigDataRate	OrigDataStartFrame	OrigNumFrames	
100.00	100.00	8	43	mm	100.00	2286	211	
Frame#	Time	LFHD			RFHD			LBHD			RBHD			C7			T10			CLAV			STRN			RBAK			LSHO			LUPA			LELB			LFRM			LWRA			LWRB			LFIN			RSHO			RUPA			RELB			RFRM			RWRA			RWRB			RFIN			LASI			RASI			LPSI			RPSI			LTHI			LKNE			LTIB			LANK			LHEE			LTOE			RTHI			RKNE			RTIB			RANK			RHEE			RTOE			*39			*40			*41			*42			
		X1	Y1	Z1	X2	Y2	Z2	X3	Y3	Z3	X4	Y4	Z4	X5	Y5	Z5	X6	Y6	Z6	X7	Y7	Z7	X8	Y8	Z8	X9	Y9	Z9	X10	Y10	Z10	X11	Y11	Z11	X12	Y12	Z12	X13	Y13	Z13	X14	Y14	Z14	X15	Y15	Z15	X16	Y16	Z16	X17	Y17	Z17	X18	Y18	Z18	X19	Y19	Z19	X20	Y20	Z20	X21	Y21	Z21	X22	Y22	Z22	X23	Y23	Z23	X24	Y24	Z24	X25	Y25	Z25	X26	Y26	Z26	X27	Y27	Z27	X28	Y28	Z28	X29	Y29	Z29	X30	Y30	Z30	X31	Y31	Z31	X32	Y32	Z32	X33	Y33	Z33	X34	Y34	Z34	X35	Y35	Z35	X36	Y36	Z36	X37	Y37	Z37	X38	Y38	Z38	X39	Y39	Z39	X40	Y40	Z40	X41	Y41	Z41	X42	Y42	Z42	X43	Y43	Z43	

185	1.840	-1071.75781	714.17719	1658.03503	-957.21747	726.79828	1660.41687	-1066.79077	594.72809	1619.68091	-945.07245	604.94983	1621.33594	-1023.42877	542.94037	1423.80017	-1013.20734	509.34314	1129.69763	-1027.10852	686.33521	1354.16638	-1030.58496	729.92657	1201.75073	-939.66302	491.64749	1229.74902	-1187.59253	619.99603	1381.99854	-1264.34351	566.51526	1198.35657	-1255.49951	531.13770	1053.72473	-1276.34009	544.14233	940.38348	-1253.86096	593.89484	810.17517	-1278.30188	539.21014	817.80432	-1282.79944	568.02954	737.29852	-873.25916	629.17365	1384.51770	-761.04144	593.78937	1186.83862	-747.57867	610.27008	1060.91858	-724.65417	689.69470	965.47205	-756.34766	812.14691	901.61475	-713.95850	778.44104	882.01599	-719.23328	848.41547	834.86890	-1115.50867	693.21997	926.11578	-896.75140	680.68781	924.32532	-1077.60559	504.28867	934.94232	-934.49982	496.93961	943.48553	-1191.75928	736.40765	609.82617	-1172.10876	769.09766	482.56210	-1189.15051	783.51208	298.71918	-1147.95361	847.95355	82.24828	-1092.87756	817.03351	39.04922	-1146.93970	997.26111	90.04147	-855.49670	565.22546	600.05139	-884.86011	537.40411	441.07300	-883.79413	437.14606	294.96872	-938.57709	352.16254	106.50438	-988.82452	293.84750	84.82153	-946.60327	477.94083	36.87704	-979.23071	716.43237	1695.20374	-3101.89722	1973.22119	1023.45966	-3140.66553	2012.58972	1022.03088			 
186	1.850	-1073.49316	724.33466	1657.31580	-958.86493	736.77319	1659.78113	-1068.63928	604.88550	1618.98792	-946.95648	614.81042	1620.71826	-1025.40051	553.04681	1422.94714	-1014.69122	520.18323	1128.72266	-1028.69568	696.56061	1353.53113	-1031.91064	740.67285	1201.27917	-941.44824	502.05252	1228.83228	-1189.30859	630.36481	1380.98987	-1265.79468	577.13788	1197.13770	-1256.51001	541.68921	1052.67957	-1277.25842	554.31183	939.29510	-1254.11438	603.11346	808.75262	-1279.11475	548.78314	816.74121	-1283.18726	577.11877	735.95190	-875.07867	638.96075	1383.95935	-762.81610	602.85687	1186.31165	-749.07782	619.89471	1060.58911	-725.99890	699.35773	965.30219	-757.58588	821.94226	901.66858	-715.04517	788.19818	882.01648	-720.27246	858.41473	835.16254	-1116.30310	704.52399	925.44275	-897.67432	691.34686	923.46594	-1078.77539	515.45319	934.41418	-935.90161	507.78983	943.04474	-1190.77026	749.45398	609.72589	-1171.04590	780.81720	482.04156	-1188.20361	793.38281	297.32489	-1146.32166	854.98206	79.96142	-1091.85278	823.10486	38.05117	-1144.12048	1004.73749	86.80271	-855.93646	574.75739	599.76453	-884.62970	546.08197	440.62628	-883.50793	443.07159	296.22095	-937.63995	354.36713	109.43364	-987.70929	295.63480	88.96161	-946.40802	478.22430	36.84270	-980.93781	726.47931	1694.54626	-3101.92603	1973.22668	1023.18451	-3140.52710	2012.52551	1022.00354			 
187	1.860	-1075.15356	734.46088	1656.58801	-960.49799	746.59692	1659.18945	-1070.65039	614.98474	1618.26978	-948.97583	624.69159	1620.04846	-1027.31982	563.25702	1421.91394	-1016.03674	531.19592	1127.73792	-1030.40845	706.90192	1352.92371	-1033.25073	751.33405	1200.72778	-943.24084	512.49384	1227.91479	-1191.21155	640.80975	1380.00146	-1267.31665	587.85071	1195.89966	-1257.75964	552.45770	1051.64880	-1278.25586	564.74762	938.21191	-1254.75110	612.98901	807.45862	-1280.05481	558.68280	815.73389	-1283.70154	586.77826	734.66553	-876.80524	648.81067	1383.51172	-764.68152	612.08258	1185.92761	-750.57800	629.18768	1060.28955	-727.30927	708.88544	965.11816	-758.77832	831.47601	901.56305	-716.10431	797.89569	881.94440	-721.37067	868.06018	835.10553	-1117.24890	716.05707	924.82477	-898.59723	702.19818	922.69592	-1080.07605	526.90497	933.81952	-937.19458	518.86737	942.67749	-1189.56641	762.51416	609.66827	-1169.92505	792.70349	481.59955	-1187.06506	802.79889	295.73672	-1144.83313	860.75903	78.14156	-1091.35364	826.68518	38.04412	-1141.17627	1010.07538	82.05267	-856.40625	584.96014	599.25806	-884.47333	555.49963	439.98557	-883.27264	449.37326	297.69870	-936.68378	356.65378	112.75221	-986.92877	297.39975	93.76238	-946.27533	478.51114	36.82627	-982.73676	736.26678	1693.72217	-3101.93896	1973.16711	1023.38788	-3140.60229	2012.52234	1021.94336			 
188	1.870	-1077.00854	744.54425	1655.91577	-962.27606	756.36676	1658.55444	-1072.81372	625.05072	1617.48792	-951.04846	634.38855	1619.32458	-1029.56055	573.41394	1420.84766	-1017.55603	542.43030	1126.63708	-1032.18994	717.31403	1352.29822	-1034.64746	762.23926	1200.23718	-945.13391	523.05701	1226.92236	-1193.18237	651.37250	1378.95789	-1268.98413	598.62372	1194.70593	-1259.08020	563.31281	1050.38562	-1279.37415	575.49915	937.03406	-1255.54736	623.43030	806.18817	-1280.86328	569.21338	814.52405	-1284.34790	597.03534	733.42242	-878.83521	658.86530	1383.03333	-766.60059	621.21179	1185.48608	-752.21667	638.36316	1059.99390	-728.78418	718.05701	964.71765	-760.00684	840.74738	901.17029	-717.69336	806.93988	881.40460	-722.33636	877.37091	834.89752	-1118.26440	727.76331	924.21759	-899.52637	713.39331	921.94568	-1081.44263	538.43768	933.15527	-938.34979	530.32574	942.20740	-1187.98132	775.27887	609.33063	-1168.51501	804.67780	481.15155	-1185.90137	811.66895	293.95007	-1143.34595	864.89081	75.92451	-1091.00500	828.56781	37.45128	-1137.45239	1014.31647	75.12038	-856.92499	595.48853	598.64392	-884.29065	565.57666	439.10239	-882.97992	456.11020	299.06100	-935.93555	359.12357	116.02554	-985.92877	299.60007	98.76327	-946.00696	478.90829	36.82501	-984.49103	746.15741	1693.20532	-3101.95435	1973.15430	1023.41730	-3140.71899	2012.66614	1022.09741			 
189	1.880	-1078.78076	754.67078	1655.35278	-964.05585	765.92938	1657.96484	-1075.08838	635.15027	1616.79944	-953.23090	644.06873	1618.63635	-1032.04211	583.56567	1419.88428	-1019.07916	553.71698	1125.53943	-1034.05786	727.78638	1351.62244	-1036.16040	773.20825	1199.81091	-947.10419	533.64166	1225.96790	-1195.29895	662.08942	1377.98376	-1270.62708	609.60559	1193.46130	-1260.54431	574.41333	1049.24634	-1280.63013	586.56732	935.83289	-1256.47729	634.28668	804.94574	-1281.93628	580.13538	813.39905	-1285.32141	607.77844	732.13770	-880.75616	668.85498	1382.47522	-768.56622	630.41193	1185.16028	-753.89557	647.42303	1059.61694	-730.22864	727.05560	964.26721	-761.20288	849.70697	900.53076	-718.79791	815.84552	880.98407	-723.69672	886.12061	834.09912	-1119.27100	739.43262	923.67609	-900.93945	724.25818	920.90332	-1082.84644	549.96460	932.43616	-939.83319	541.61121	941.75299	-1185.98792	787.66638	608.72064	-1167.56946	816.44592	480.54993	-1184.30688	820.01007	292.34167	-1142.16528	868.20233	74.75775	-1090.32190	830.12146	38.93938	-1134.15735	1018.29840	65.82846	-857.54871	606.74292	597.81250	-884.14294	576.42407	438.07193	-882.67633	463.76620	300.44116	-935.04968	362.64938	119.54546	-985.11658	302.55280	104.19958	-945.69073	479.35944	36.80706	-986.37219	755.83417	1692.62451	-3101.88501	1973.04346	1023.35748	-3140.74805	2012.46716	1021.82825			 
190	1.890	-1080.69250	764.81885	1655.30334	-965.67395	775.56879	1657.80005	-1077.47961	645.36371	1616.40393	-955.57202	653.67981	1618.17920	-1034.52649	593.68481	1419.33252	-1020.56866	565.02148	1124.59143	-1035.97729	738.22278	1351.16516	-1037.63867	784.10913	1199.69287	-949.38135	544.30786	1225.20740	-1197.47351	672.89203	1377.04163	-1272.55566	620.57227	1192.24207	-1262.17859	585.74615	1048.00647	-1281.93347	597.92114	934.54041	-1257.50415	645.67114	803.74243	-1282.98389	591.48083	812.12000	-1286.11572	619.17664	730.85828	-882.83594	678.65265	1381.92310	-770.51294	639.67444	1184.92468	-755.74469	656.30267	1059.15430	-731.62531	735.63202	963.62286	-762.37097	858.30786	899.59399	-719.97198	824.47900	880.21094	-724.85736	894.59320	833.07434	-1120.21521	751.08124	923.31671	-901.64496	736.05371	920.40009	-1084.50537	561.48151	931.83801	-941.19379	553.04028	941.11951	-1184.05762	799.70905	608.06073	-1167.39185	828.08624	480.03268	-1182.43970	828.32819	291.59854	-1142.07910	872.01324	74.62376	-1090.99023	831.99084	40.01290	-1131.50928	1022.28992	58.18904	-858.23138	618.36938	596.71698	-884.17865	588.06201	437.07269	-882.63330	471.39246	302.24493	-934.23615	366.01126	123.66280	-984.40210	305.78455	110.25808	-945.64520	479.77911	36.89894	-988.06378	765.50214	1692.32849	-3101.92627	1973.11084	1023.39496	-3140.64868	2012.55896	1021.96906			 
191	1.900	-1081.87524	775.19055	1655.44324	-967.24652	785.27863	1658.05029	-1079.78760	655.74023	1616.45728	-957.96790	663.32806	1618.09766	-1036.89673	604.10333	1419.20959	-1021.98016	576.23621	1124.21692	-1037.87305	748.64587	1351.15845	-1039.17310	795.01099	1199.88916	-951.92822	554.93359	1224.65527	-1199.64404	683.79803	1376.25940	-1274.34790	631.95422	1191.06165	-1263.82568	597.34662	1046.78137	-1283.40759	609.61249	933.30347	-1258.56885	657.56073	802.62494	-1284.00354	603.45947	810.75311	-1287.08386	631.17810	729.77509	-884.91022	688.49445	1381.77454	-772.57678	648.76917	1184.55908	-757.59143	665.15881	1058.77380	-733.17450	743.89026	962.78271	-763.43970	866.70551	898.47638	-721.30920	832.51532	878.99902	-726.02185	902.46240	831.77081	-1121.14502	762.72992	923.13062	-902.92456	747.28412	919.78558	-1086.01294	573.07428	931.56494	-942.22076	564.42224	940.43121	-1182.72876	811.38483	608.17358	-1167.34045	839.62073	480.10513	-1181.20776	837.20190	292.03207	-1142.57275	876.43011	74.22169	-1092.06104	834.21997	41.76461	-1130.20862	1025.44153	52.22051	-858.97949	631.03479	595.77728	-884.19586	600.60309	435.81815	-882.81488	480.07507	304.52545	-933.37518	370.25269	128.50621	-983.82513	310.24896	117.47127	-945.40704	480.33582	36.95460	-989.78210	774.98175	1692.27173	-3101.90332	1973.20544	1023.35461	-3140.64551	2012.50110	1022.03778			 
192	1.910	-1084.10449	785.49951	1655.80432	-968.91235	794.94464	1658.30847	-1082.11926	666.18304	1616.78784	-960.18707	673.11053	1618.38110	-1039.57336	614.73431	1419.32007	-1023.35944	587.37695	1124.18152	-1039.69043	759.03076	1351.42737	-1040.68079	805.84430	1200.25378	-954.43835	565.31702	1224.32654	-1201.88281	694.70398	1375.63708	-1276.19043	643.47302	1190.04541	-1265.63928	609.19763	1045.65198	-1284.91113	621.75360	932.11023	-1259.72461	669.95227	801.65472	-1285.23608	615.85522	809.57599	-1288.25159	643.79230	728.80432	-886.80774	698.25848	1381.70166	-774.70190	657.84247	1184.53259	-759.69507	673.96747	1058.55432	-734.83411	752.31921	962.19757	-764.61981	874.67963	897.05377	-722.41821	840.14758	877.84949	-726.94586	909.89789	830.27356	-1122.06323	774.30164	923.13336	-904.35199	758.55695	919.49933	-1087.22681	584.52393	931.89386	-943.30981	575.78070	939.90588	-1182.47009	822.88342	608.98883	-1167.43420	850.95856	481.06583	-1181.45081	846.56024	292.93365	-1142.64893	879.98279	74.18369	-1092.67273	836.02209	42.90723	-1130.90955	1028.13367	48.25971	-859.69427	644.39893	594.89697	-883.67181	614.47034	434.93494	-882.97559	489.58923	307.52991	-932.94495	375.58255	134.04254	-984.13928	315.99658	125.62923	-945.13330	481.05511	36.90693	-991.29932	784.84875	1692.79016	-3101.82202	1973.13672	1023.47974	-3140.58203	2012.53320	1022.04828			 
